<?xml version="1.0" encoding="utf-8"?>
<!-- Generator: Adobe Illustrator 25.4.1, SVG Export Plug-In . SVG Version: 6.00 Build 0)  -->
<svg version="1.1" id="Layer_1" xmlns="http://www.w3.org/2000/svg" xmlns:xlink="http://www.w3.org/1999/xlink" x="0px" y="0px"
	 viewBox="0 0 1091.64 356.54" style="enable-background:new 0 0 1091.64 356.54;" xml:space="preserve">
<style type="text/css">
	.st0{fill:#E30613;}
</style>
<g>
	<path d="M410.21,288.17H178.27c-60.6,0-109.9-49.3-109.9-109.9s49.3-109.9,109.9-109.9H416.6L484.96,0h-306.7
		C79.81,0,0,79.81,0,178.27v0c0,98.45,79.81,178.27,178.27,178.27h231.94V288.17z"/>
	<path d="M681.43,68.37h231.94c60.6,0,109.9,49.3,109.9,109.9c0,60.6-49.3,109.9-109.9,109.9H675.08l-68.37,68.37h306.66
		c98.45,0,178.27-79.81,178.27-178.27v0C1091.64,79.81,1011.82,0,913.37,0H681.43V68.37z"/>
	<polygon points="343.78,356.32 680,0.3 773.83,0.52 437.61,356.54 	"/>
	<polygon class="st0" points="657.22,267.32 506.51,89.29 436.54,89.51 587.25,267.54 	"/>
</g>
</svg>
